<?xml version="1.0" encoding="utf-8"?>
<!-- Generator: Adobe Illustrator 17.0.0, SVG Export Plug-In . SVG Version: 6.00 Build 0)  -->
<!DOCTYPE svg PUBLIC "-//W3C//DTD SVG 1.1//EN" "http://www.w3.org/Graphics/SVG/1.1/DTD/svg11.dtd">
<svg version="1.1" id="Capa_1" xmlns="http://www.w3.org/2000/svg" xmlns:xlink="http://www.w3.org/1999/xlink" x="0px" y="0px"
	 width="26.102px" height="32.008px" viewBox="0 0 26.102 32.008" enable-background="new 0 0 26.102 32.008" xml:space="preserve">
<path d="M13.919,20.75h8.087v1.724h-8.087V20.75z M15.72,19.17h6.286v-1.725H15.72V19.17z M23.329,0H6.37
	C4.84,0,3.597,1.42,3.597,3.166v20.18l1.652-2.421V3.166c0-0.821,0.513-1.515,1.121-1.515h16.959c0.608,0,1.121,0.695,1.121,1.515
	V23.57c0,0.822-0.513,1.516-1.121,1.516H8.969l-1.127,1.651h15.486c1.529,0,2.773-1.421,2.773-3.167V3.166
	C26.102,1.42,24.858,0,23.329,0z M5.249,23.57v-2.645l2.324-3.406l0.77-1.128l0.859-1.26c0.058-0.114,0.129-0.225,0.225-0.33
	l0.043-0.062l0.012,0.008c0.077-0.076,0.161-0.152,0.26-0.221l4.333-2.998c0.3-0.207,0.56-0.306,0.763-0.306
	c0.41,0,0.592,0.399,0.422,1.115l-1.211,5.127c-0.028,0.119-0.077,0.215-0.121,0.316l0.018,0.012l-0.051,0.074
	c-0.053,0.106-0.119,0.194-0.189,0.277l-0.887,1.301l-3.85,5.642H7.526l4.582-6.715c-0.057-0.031-0.115-0.047-0.172-0.086
	l-0.367-0.252c0,0-3.238,4.746-4.812,7.053H6.37C5.762,25.086,5.249,24.391,5.249,23.57z M10.337,15.33l2.746,1.875l1.066-4.512
	L10.337,15.33z M16.639,15.868h5.368v-1.725h-5.368V15.868z M5.702,26.633c0.215,0.061,0.437,0.104,0.668,0.104H6.4l1.127-1.651
	H6.757C6.412,25.592,5.767,26.538,5.702,26.633z M22.006,4.232H11.751v1.725h10.255V4.232z M16.639,12.564h5.368V10.84h-5.368
	V12.564z M10.272,10.84H7.726v1.724h2.546V10.84z M22.007,7.535H7.726V9.26h14.281V7.535z M6.4,26.737h1.443L4.84,31.138
	c-0.031,0.046-0.073,0.079-0.107,0.12c-0.022,0.045-0.038,0.092-0.066,0.133c-0.184,0.269-0.479,0.43-0.822,0.492
	c-0.214,0.074-0.435,0.125-0.662,0.125c-0.388,0-0.779-0.112-1.122-0.346l-1.172-0.8c-0.558-0.38-0.859-0.997-0.868-1.629
	c-0.055-0.325-0.005-0.639,0.17-0.897c0.025-0.037,0.059-0.064,0.088-0.096c0.029-0.052,0.051-0.107,0.085-0.156l1.615-2.367
	l1.618-2.371v0.224c0,1.482,0.899,2.72,2.105,3.063c-0.012,0.017-0.193,0.283-0.193,0.283l0.525,0.357L6.4,26.737z M5.629,28.207
	l-2.824-1.928l-1.078,1.579c0.315,0.062,0.639,0.189,0.941,0.396l1.172,0.8c0.302,0.206,0.538,0.462,0.711,0.733L5.629,28.207z
	 M10.272,4.232H7.726v1.725h2.546V4.232z"/>
</svg>
