<?xml version="1.0" encoding="utf-8"?>
<!-- Generator: Adobe Illustrator 16.0.0, SVG Export Plug-In . SVG Version: 6.00 Build 0)  -->
<!DOCTYPE svg PUBLIC "-//W3C//DTD SVG 1.1//EN" "http://www.w3.org/Graphics/SVG/1.1/DTD/svg11.dtd">
<svg version="1.1" id="Lager_1" xmlns="http://www.w3.org/2000/svg" xmlns:xlink="http://www.w3.org/1999/xlink" x="0px" y="0px"
	 width="250px" height="70px" viewBox="0 0 250 70" enable-background="new 0 0 250 70" xml:space="preserve">
<g>
	<path fill="#EE7623" d="M21.087,30.48H1.361v-2.405l2.16-0.367c0.488-0.082,0.809-0.224,0.957-0.428
		c0.149-0.204,0.225-0.577,0.225-1.121V5.457c0-0.543-0.075-0.917-0.225-1.121C4.33,4.132,4.01,3.989,3.521,3.908l-2.16-0.367V1.137
		h10.434v2.404L9.391,3.908C8.9,3.989,8.582,4.132,8.433,4.336S8.209,4.914,8.209,5.457v22.049h8.109
		c0.516,0,0.896-0.075,1.142-0.224c0.244-0.149,0.38-0.469,0.407-0.958l0.244-3.057h2.73L21.087,30.48z"/>
	<path fill="#EE7623" d="M35.84,28.076v2.405H25.651v-2.405l2.16-0.367c0.489-0.082,0.808-0.224,0.958-0.428
		c0.148-0.204,0.224-0.577,0.224-1.121V5.457c0-0.543-0.075-0.917-0.224-1.121c-0.15-0.204-0.469-0.347-0.958-0.428l-2.16-0.367
		V1.137H35.84v2.404l-2.16,0.367c-0.488,0.081-0.809,0.224-0.957,0.428c-0.15,0.204-0.225,0.578-0.225,1.121v20.704
		c0,0.543,0.074,0.917,0.225,1.121c0.148,0.204,0.469,0.346,0.957,0.428L35.84,28.076z"/>
	<path fill="#EE7623" d="M43.543,22.452l0.611,4.157c1.576,0.951,3.295,1.426,5.156,1.426c1.86,0,3.361-0.441,4.503-1.325
		c1.142-0.882,1.712-2.023,1.712-3.423c0-1.399-0.347-2.479-1.039-3.24c-0.693-0.76-2.018-1.508-3.975-2.241l-4.972-1.875
		c-1.657-0.625-2.981-1.562-3.974-2.812c-0.992-1.25-1.488-2.785-1.488-4.605c0-2.364,0.781-4.245,2.344-5.645
		c1.562-1.399,3.715-2.099,6.46-2.099c2.744,0,5.651,0.367,8.722,1.1l-0.57,6.317h-2.935L53.487,4.52
		C52.02,3.84,50.431,3.5,48.719,3.5c-3.26,0-4.891,1.508-4.891,4.524c0,1.223,0.354,2.221,1.061,2.996
		c0.705,0.774,1.941,1.474,3.708,2.099l3.464,1.223c2.064,0.733,3.58,1.488,4.545,2.262c0.964,0.774,1.63,1.609,1.996,2.506
		c0.367,0.896,0.551,1.943,0.551,3.138c0,2.608-0.917,4.701-2.751,6.276s-4.449,2.364-7.845,2.364c-2.311,0-4.279-0.299-5.91-0.897
		c-0.57-0.189-1.426-0.516-2.568-0.978l0.49-6.562H43.543z"/>
	<path fill="#EE7623" d="M64.572,25.916l8.762-24.779h3.791l8.721,24.779c0.245,0.679,0.496,1.135,0.755,1.365
		c0.258,0.231,0.658,0.401,1.202,0.509l1.59,0.285v2.405H78.918v-2.323l2.242-0.367c0.705-0.108,1.059-0.434,1.059-0.978
		c0-0.245-0.055-0.516-0.162-0.815l-1.794-5.176h-10.8l-1.712,5.054c-0.108,0.299-0.163,0.584-0.163,0.856
		c0,0.598,0.367,0.951,1.101,1.06l2.2,0.367v2.323h-9.781v-2.405l1.549-0.285c0.543-0.108,0.938-0.278,1.182-0.509
		C64.083,27.051,64.328,26.595,64.572,25.916z M75.291,6.476l-0.449-1.834l-0.447,1.834l-3.953,11.493h8.803L75.291,6.476z"/>
	<path fill="#EE7623" d="M95.709,22.452l0.611,4.157c1.576,0.951,3.295,1.426,5.156,1.426c1.86,0,3.361-0.441,4.503-1.325
		c1.142-0.882,1.712-2.023,1.712-3.423c0-1.399-0.347-2.479-1.039-3.24c-0.693-0.76-2.018-1.508-3.975-2.241l-4.972-1.875
		c-1.657-0.625-2.981-1.562-3.974-2.812c-0.992-1.25-1.488-2.785-1.488-4.605c0-2.364,0.781-4.245,2.344-5.645
		c1.562-1.399,3.715-2.099,6.46-2.099c2.744,0,5.651,0.367,8.722,1.1l-0.57,6.317h-2.935l-0.611-3.668
		c-1.468-0.679-3.057-1.019-4.769-1.019c-3.26,0-4.891,1.508-4.891,4.524c0,1.223,0.354,2.221,1.061,2.996
		c0.705,0.774,1.941,1.474,3.708,2.099l3.464,1.223c2.064,0.733,3.58,1.488,4.545,2.262c0.964,0.774,1.63,1.609,1.996,2.506
		c0.367,0.896,0.551,1.943,0.551,3.138c0,2.608-0.917,4.701-2.751,6.276s-4.449,2.364-7.845,2.364c-2.311,0-4.279-0.299-5.91-0.897
		c-0.57-0.189-1.426-0.516-2.568-0.978l0.49-6.562H95.709z"/>
	<path fill="#EE7623" d="M21.087,68.152H1.361v-2.404l2.16-0.367C4.01,65.3,4.33,65.157,4.479,64.953
		c0.149-0.204,0.225-0.577,0.225-1.121V43.129c0-0.544-0.075-0.917-0.225-1.121C4.33,41.804,4.01,41.661,3.521,41.58l-2.16-0.367
		v-2.404h10.434v2.404L9.391,41.58c-0.49,0.081-0.809,0.224-0.958,0.428s-0.224,0.577-0.224,1.121v22.048h8.109
		c0.516,0,0.896-0.074,1.142-0.224c0.244-0.149,0.38-0.469,0.407-0.958l0.244-3.057h2.73L21.087,68.152z"/>
	<path fill="#EE7623" d="M26.956,63.588l8.763-24.779h3.79l8.722,24.779c0.244,0.68,0.495,1.135,0.754,1.365
		c0.258,0.231,0.658,0.401,1.202,0.51l1.589,0.285v2.404H41.302v-2.323l2.241-0.366c0.707-0.108,1.061-0.435,1.061-0.979
		c0-0.244-0.055-0.516-0.164-0.815l-1.793-5.176h-10.8l-1.712,5.054c-0.109,0.3-0.163,0.585-0.163,0.856
		c0,0.598,0.366,0.951,1.101,1.06l2.201,0.366v2.323h-9.781v-2.404l1.549-0.285c0.543-0.108,0.937-0.278,1.182-0.51
		C26.467,64.723,26.711,64.268,26.956,63.588z M37.674,44.147l-0.447-1.834l-0.449,1.834l-3.953,11.493h8.804L37.674,44.147z"/>
	<path fill="#EE7623" d="M57.645,63.832V43.129c0-0.544-0.076-0.917-0.225-1.121c-0.149-0.204-0.469-0.347-0.957-0.428l-2.16-0.367
		v-2.404h10.434c3.123,0,5.467,0.462,7.029,1.386s2.344,2.663,2.344,5.217c0,1.82-0.489,3.369-1.467,4.646
		c-0.979,1.277-2.025,2.052-3.139,2.323c2.011,0.19,3.62,0.843,4.83,1.956c1.208,1.115,1.812,2.771,1.812,4.973
		c0,2.744-0.896,4.904-2.689,6.479c-1.793,1.576-4.238,2.364-7.336,2.364H54.303v-2.404l2.16-0.367
		c0.488-0.081,0.808-0.224,0.957-0.428C57.568,64.749,57.645,64.376,57.645,63.832z M61.149,41.661v9.863h3.179
		c2.119,0,3.641-0.347,4.564-1.039c0.924-0.693,1.386-2.153,1.386-4.382c0-1.738-0.558-2.914-1.671-3.525
		c-1.114-0.611-2.717-0.917-4.809-0.917H61.149z M61.149,54.296V65.3h4.401c2.092,0,3.654-0.299,4.688-0.896
		c1.385-0.843,2.078-2.514,2.078-5.014c0-3.396-2.256-5.094-6.766-5.094H61.149z"/>
	<path fill="#EE7623" d="M82.016,63.832V43.129c0-0.544-0.075-0.917-0.225-1.121c-0.148-0.204-0.469-0.347-0.957-0.428l-2.16-0.367
		v-2.404h10.434c3.124,0,5.467,0.462,7.03,1.386c1.562,0.924,2.343,2.663,2.343,5.217c0,1.82-0.488,3.369-1.467,4.646
		c-0.979,1.277-2.024,2.052-3.139,2.323c2.012,0.19,3.621,0.843,4.83,1.956c1.209,1.115,1.813,2.771,1.813,4.973
		c0,2.744-0.896,4.904-2.689,6.479c-1.794,1.576-4.239,2.364-7.337,2.364H78.674v-2.404l2.16-0.367
		c0.488-0.081,0.809-0.224,0.957-0.428C81.94,64.749,82.016,64.376,82.016,63.832z M85.521,41.661v9.863h3.178
		c2.119,0,3.641-0.347,4.564-1.039c0.924-0.693,1.387-2.153,1.387-4.382c0-1.738-0.558-2.914-1.672-3.525
		c-1.113-0.611-2.717-0.917-4.809-0.917H85.521z M85.521,54.296V65.3h4.4c2.092,0,3.654-0.299,4.688-0.896
		c1.386-0.843,2.078-2.514,2.078-5.014c0-3.396-2.256-5.094-6.766-5.094H85.521z"/>
	<path fill="#EE7623" d="M105.572,63.832V43.129c0-0.544-0.075-0.917-0.225-1.121c-0.148-0.204-0.469-0.347-0.957-0.428l-2.16-0.367
		v-2.404h10.719c3.098,0,5.454,0.55,7.07,1.65c1.617,1.101,2.426,3.152,2.426,6.154s-1.047,5.447-3.139,7.336
		s-4.523,2.832-7.295,2.832h-2.934v7.051c0,0.544,0.08,0.924,0.244,1.142c0.162,0.218,0.488,0.354,0.979,0.407l2.893,0.326v2.445
		H102.23v-2.404l2.16-0.367c0.488-0.081,0.809-0.224,0.957-0.428C105.497,64.749,105.572,64.376,105.572,63.832z M109.078,41.661
		v12.268h2.812c2.2,0,3.694-0.319,4.483-0.958c0.787-0.638,1.338-1.419,1.65-2.343s0.469-2.201,0.469-3.831
		c0-3.424-1.971-5.136-5.91-5.136H109.078z"/>
	<path fill="#EE7623" d="M145.553,40.398c1.82,1.331,3.111,3.084,3.873,5.257c0.76,2.174,1.141,4.524,1.141,7.051
		s-0.26,4.666-0.775,6.419s-1.311,3.349-2.383,4.789c-1.074,1.44-2.521,2.574-4.342,3.402c-1.82,0.829-4.033,1.243-6.643,1.243
		c-2.607,0-4.822-0.665-6.643-1.997c-1.82-1.33-3.111-3.083-3.873-5.257c-0.76-2.174-1.141-4.524-1.141-7.051
		c0-2.527,0.258-4.667,0.775-6.419c0.516-1.753,1.311-3.349,2.383-4.789c1.074-1.439,2.52-2.574,4.342-3.403
		c1.818-0.828,4.033-1.242,6.643-1.242C141.518,38.401,143.732,39.067,145.553,40.398z M144.146,44.555
		c-1.645-2.092-3.912-3.138-6.805-3.138c-2.895,0-4.994,0.747-6.297,2.241c-0.68,0.788-1.238,2.181-1.672,4.178
		c-0.436,1.997-0.652,3.96-0.652,5.889c0,3.695,0.822,6.589,2.467,8.682c1.643,2.092,3.912,3.138,6.805,3.138
		c2.895,0,4.994-0.747,6.297-2.241c0.68-0.788,1.236-2.181,1.672-4.178c0.434-1.997,0.652-3.96,0.652-5.889
		C146.613,49.541,145.791,46.647,144.146,44.555z"/>
	<path fill="#EE7623" d="M159.043,54.825v9.007c0,0.544,0.08,0.924,0.244,1.142c0.162,0.218,0.488,0.354,0.979,0.407l2.648,0.326
		v2.445h-10.719v-2.404l2.16-0.367c0.488-0.081,0.809-0.224,0.957-0.428c0.15-0.204,0.225-0.577,0.225-1.121V43.129
		c0-0.544-0.074-0.917-0.225-1.121c-0.148-0.204-0.469-0.347-0.957-0.428l-2.16-0.367v-2.404h10.719
		c3.016,0,5.324,0.557,6.928,1.671s2.404,3.003,2.404,5.665c0,3.016-1.223,5.217-3.668,6.603c-1.223,0.707-2.459,1.141-3.707,1.304
		c0.814,0.19,1.697,1.033,2.648,2.527l4.482,7.01c0.924,1.44,1.998,2.16,3.221,2.16c0.379,0,0.855-0.095,1.426-0.285l-0.203,2.241
		c-0.762,0.57-1.834,0.855-3.221,0.855c-1.684,0-3.273-1.141-4.768-3.423l-5.461-8.682c-0.707-1.086-1.535-1.63-2.486-1.63H159.043z
		 M159.043,41.661v10.312h3.627c1.848,0,3.178-0.34,3.994-1.02c1.086-0.896,1.629-2.363,1.629-4.401c0-3.26-2.064-4.891-6.193-4.891
		H159.043z"/>
	<path fill="#EE7623" d="M194.785,41.661h-5.666v22.171c0,0.544,0.074,0.917,0.225,1.121c0.148,0.204,0.469,0.347,0.957,0.428
		l2.324,0.367v2.404h-10.516v-2.404l2.322-0.367c0.49-0.081,0.809-0.224,0.959-0.428c0.148-0.204,0.225-0.577,0.225-1.121V41.661
		h-5.707c-0.516,0-0.891,0.075-1.121,0.225s-0.359,0.469-0.387,0.958l-0.244,2.975h-2.607l-0.246-7.01h24.127l-0.244,7.01h-2.607
		l-0.244-2.975c-0.027-0.489-0.164-0.809-0.408-0.958S195.301,41.661,194.785,41.661z"/>
	<path fill="#EE7623" d="M200.123,63.588l8.762-24.779h3.791l8.721,24.779c0.246,0.68,0.496,1.135,0.754,1.365
		c0.258,0.231,0.66,0.401,1.203,0.51l1.59,0.285v2.404h-10.475v-2.323l2.242-0.366c0.705-0.108,1.059-0.435,1.059-0.979
		c0-0.244-0.055-0.516-0.162-0.815l-1.793-5.176h-10.801l-1.711,5.054c-0.109,0.3-0.164,0.585-0.164,0.856
		c0,0.598,0.367,0.951,1.1,1.06l2.201,0.366v2.323h-9.781v-2.404l1.549-0.285c0.543-0.108,0.938-0.278,1.182-0.51
		C199.635,64.723,199.879,64.268,200.123,63.588z M210.842,44.147l-0.449-1.834l-0.447,1.834l-3.953,11.493h8.803L210.842,44.147z"
		/>
	<path fill="#EE7623" d="M247.195,68.152h-19.727v-2.404l2.16-0.367c0.488-0.081,0.809-0.224,0.957-0.428
		c0.15-0.204,0.225-0.577,0.225-1.121V43.129c0-0.544-0.074-0.917-0.225-1.121c-0.148-0.204-0.469-0.347-0.957-0.428l-2.16-0.367
		v-2.404h10.434v2.404l-2.404,0.367c-0.49,0.081-0.809,0.224-0.959,0.428c-0.148,0.204-0.223,0.577-0.223,1.121v22.048h8.109
		c0.516,0,0.896-0.074,1.141-0.224c0.246-0.149,0.381-0.469,0.408-0.958l0.244-3.057h2.73L247.195,68.152z"/>
</g>
</svg>
