<?xml version="1.0" encoding="utf-8"?>
<!-- Generator: Adobe Illustrator 16.0.0, SVG Export Plug-In . SVG Version: 6.00 Build 0)  -->
<!DOCTYPE svg PUBLIC "-//W3C//DTD SVG 1.1//EN" "http://www.w3.org/Graphics/SVG/1.1/DTD/svg11.dtd">
<svg version="1.1" id="Lager_1" xmlns="http://www.w3.org/2000/svg" xmlns:xlink="http://www.w3.org/1999/xlink" x="0px" y="0px"
	 width="250px" height="20.904px" viewBox="0 0 250 20.904" enable-background="new 0 0 250 20.904" xml:space="preserve">
<g>
	<path fill="#EE7623" d="M14.794,19.904H1.583v-1.61l1.446-0.246c0.328-0.054,0.541-0.149,0.643-0.286
		c0.1-0.137,0.149-0.387,0.149-0.751V3.146c0-0.364-0.05-0.614-0.149-0.751C3.57,2.258,3.357,2.163,3.029,2.108L1.583,1.862v-1.61
		H8.57v1.61L6.96,2.108C6.633,2.163,6.418,2.258,6.318,2.395s-0.15,0.387-0.15,0.751v14.767H11.6c0.346,0,0.602-0.05,0.766-0.15
		c0.163-0.1,0.254-0.313,0.272-0.642l0.163-2.047h1.829L14.794,19.904z"/>
	<path fill="#EE7623" d="M24.674,18.294v1.61h-6.823v-1.61l1.446-0.246c0.328-0.054,0.541-0.149,0.643-0.286
		c0.1-0.137,0.149-0.387,0.149-0.751V3.146c0-0.364-0.05-0.614-0.149-0.751c-0.102-0.137-0.314-0.231-0.643-0.286l-1.446-0.246
		v-1.61h6.823v1.61l-1.446,0.246c-0.327,0.055-0.542,0.149-0.642,0.286s-0.15,0.387-0.15,0.751v13.865
		c0,0.364,0.051,0.614,0.15,0.751s0.314,0.232,0.642,0.286L24.674,18.294z"/>
	<path fill="#EE7623" d="M29.834,14.527l0.408,2.784c1.056,0.637,2.207,0.955,3.453,0.955s2.252-0.296,3.017-0.887
		c0.765-0.592,1.146-1.355,1.146-2.293s-0.231-1.66-0.695-2.17s-1.352-1.01-2.661-1.501l-3.33-1.256
		c-1.11-0.419-1.997-1.046-2.661-1.884c-0.664-0.837-0.996-1.864-0.996-3.084c0-1.583,0.522-2.843,1.569-3.78
		c1.046-0.938,2.487-1.406,4.326-1.406c1.837,0,3.784,0.246,5.841,0.737l-0.382,4.23h-1.966l-0.409-2.456
		c-0.982-0.455-2.047-0.683-3.193-0.683c-2.184,0-3.275,1.01-3.275,3.03c0,0.818,0.236,1.487,0.71,2.006
		c0.473,0.519,1.301,0.987,2.483,1.405l2.32,0.819c1.383,0.491,2.397,0.996,3.044,1.515c0.645,0.519,1.092,1.078,1.337,1.679
		s0.368,1.301,0.368,2.102c0,1.747-0.613,3.148-1.842,4.203c-1.229,1.056-2.98,1.583-5.254,1.583c-1.547,0-2.867-0.2-3.959-0.6
		c-0.382-0.128-0.955-0.346-1.719-0.655l0.327-4.395H29.834z"/>
	<path fill="#EE7623" d="M43.917,16.848l5.868-16.596h2.539l5.841,16.596c0.163,0.455,0.331,0.76,0.505,0.914
		c0.173,0.154,0.441,0.269,0.805,0.341l1.064,0.191v1.61h-7.014v-1.556l1.5-0.246c0.474-0.072,0.711-0.291,0.711-0.654
		c0-0.164-0.037-0.346-0.109-0.546l-1.201-3.467h-7.233l-1.146,3.385c-0.073,0.2-0.108,0.392-0.108,0.573
		c0,0.4,0.245,0.637,0.736,0.709l1.474,0.246v1.556h-6.55v-1.61l1.037-0.191c0.363-0.072,0.627-0.187,0.791-0.341
		S43.754,17.303,43.917,16.848z M51.096,3.827L50.795,2.6l-0.3,1.228l-2.647,7.697h5.896L51.096,3.827z"/>
	<path fill="#EE7623" d="M64.77,14.527l0.41,2.784c1.055,0.637,2.206,0.955,3.453,0.955c1.246,0,2.251-0.296,3.016-0.887
		c0.764-0.592,1.146-1.355,1.146-2.293s-0.232-1.66-0.696-2.17s-1.351-1.01-2.661-1.501l-3.33-1.256
		c-1.11-0.419-1.997-1.046-2.661-1.884c-0.665-0.837-0.997-1.864-0.997-3.084c0-1.583,0.523-2.843,1.57-3.78
		c1.046-0.938,2.488-1.406,4.326-1.406s3.785,0.246,5.841,0.737l-0.382,4.23H71.84l-0.41-2.456
		c-0.982-0.455-2.047-0.683-3.193-0.683c-2.184,0-3.275,1.01-3.275,3.03c0,0.818,0.236,1.487,0.71,2.006
		c0.473,0.519,1.301,0.987,2.483,1.405l2.32,0.819c1.383,0.491,2.397,0.996,3.043,1.515c0.646,0.519,1.092,1.078,1.338,1.679
		s0.369,1.301,0.369,2.102c0,1.747-0.615,3.148-1.844,4.203c-1.228,1.056-2.979,1.583-5.254,1.583c-1.547,0-2.865-0.2-3.957-0.6
		c-0.383-0.128-0.955-0.346-1.721-0.655l0.328-4.395H64.77z"/>
	<path fill="#EE7623" d="M97.605,19.904H84.395v-1.61l1.447-0.246c0.327-0.054,0.541-0.149,0.641-0.286s0.15-0.387,0.15-0.751V3.146
		c0-0.364-0.051-0.614-0.15-0.751s-0.313-0.231-0.641-0.286l-1.447-0.246v-1.61h6.988v1.61l-1.611,0.246
		c-0.327,0.055-0.541,0.149-0.641,0.286c-0.101,0.137-0.15,0.387-0.15,0.751v14.767h5.432c0.346,0,0.6-0.05,0.764-0.15
		c0.164-0.1,0.255-0.313,0.273-0.642l0.164-2.047h1.828L97.605,19.904z"/>
	<path fill="#EE7623" d="M101.535,16.848l5.869-16.596h2.538l5.841,16.596c0.164,0.455,0.332,0.76,0.506,0.914
		c0.172,0.154,0.44,0.269,0.805,0.341l1.064,0.191v1.61h-7.015v-1.556l1.501-0.246c0.473-0.072,0.71-0.291,0.71-0.654
		c0-0.164-0.036-0.346-0.109-0.546l-1.201-3.467h-7.233l-1.146,3.385c-0.072,0.2-0.108,0.392-0.108,0.573
		c0,0.4,0.245,0.637,0.737,0.709l1.473,0.246v1.556h-6.55v-1.61l1.037-0.191c0.364-0.072,0.628-0.187,0.792-0.341
		C101.208,17.607,101.372,17.303,101.535,16.848z M108.715,3.827L108.414,2.6l-0.301,1.228l-2.646,7.697h5.895L108.715,3.827z"/>
	<path fill="#EE7623" d="M122.089,17.011V3.146c0-0.364-0.05-0.614-0.149-0.751c-0.102-0.137-0.314-0.231-0.643-0.286l-1.446-0.246
		v-1.61h6.987c2.093,0,3.662,0.31,4.709,0.928c1.046,0.619,1.569,1.784,1.569,3.494c0,1.219-0.328,2.257-0.982,3.111
		c-0.655,0.855-1.356,1.374-2.103,1.556c1.347,0.128,2.425,0.564,3.235,1.311c0.809,0.746,1.214,1.856,1.214,3.33
		c0,1.838-0.601,3.284-1.801,4.34c-1.201,1.056-2.839,1.583-4.913,1.583h-7.916v-1.61l1.446-0.246
		c0.328-0.054,0.541-0.149,0.643-0.286C122.039,17.625,122.089,17.375,122.089,17.011z M124.436,2.163v6.604h2.13
		c1.419,0,2.438-0.231,3.057-0.695s0.928-1.442,0.928-2.935c0-1.164-0.373-1.951-1.118-2.361c-0.747-0.409-1.82-0.613-3.221-0.613
		H124.436z M124.436,10.624v7.37h2.948c1.401,0,2.447-0.2,3.14-0.601c0.928-0.564,1.392-1.684,1.392-3.357
		c0-2.274-1.511-3.412-4.531-3.412H124.436z"/>
	<path fill="#EE7623" d="M138.411,17.011V3.146c0-0.364-0.051-0.614-0.15-0.751s-0.313-0.231-0.642-0.286l-1.446-0.246v-1.61h6.987
		c2.093,0,3.662,0.31,4.709,0.928c1.046,0.619,1.569,1.784,1.569,3.494c0,1.219-0.328,2.257-0.982,3.111
		c-0.655,0.855-1.356,1.374-2.103,1.556c1.347,0.128,2.425,0.564,3.235,1.311c0.809,0.746,1.214,1.856,1.214,3.33
		c0,1.838-0.601,3.284-1.801,4.34c-1.201,1.056-2.839,1.583-4.913,1.583h-7.916v-1.61l1.446-0.246
		c0.328-0.054,0.542-0.149,0.642-0.286S138.411,17.375,138.411,17.011z M140.759,2.163v6.604h2.129c1.419,0,2.438-0.231,3.057-0.695
		s0.928-1.442,0.928-2.935c0-1.164-0.373-1.951-1.118-2.361c-0.747-0.409-1.82-0.613-3.222-0.613H140.759z M140.759,10.624v7.37
		h2.947c1.401,0,2.447-0.2,3.14-0.601c0.928-0.564,1.392-1.684,1.392-3.357c0-2.274-1.511-3.412-4.531-3.412H140.759z"/>
	<path fill="#EE7623" d="M154.188,17.011V3.146c0-0.364-0.051-0.614-0.15-0.751s-0.313-0.231-0.642-0.286l-1.446-0.246v-1.61h7.179
		c2.074,0,3.652,0.368,4.735,1.105s1.624,2.111,1.624,4.121c0,2.012-0.7,3.649-2.102,4.913c-1.401,1.266-3.029,1.897-4.886,1.897
		h-1.965v4.722c0,0.364,0.055,0.619,0.163,0.765c0.109,0.146,0.328,0.236,0.655,0.272l1.938,0.219v1.638h-7.343v-1.61l1.446-0.246
		c0.328-0.054,0.542-0.149,0.642-0.286S154.188,17.375,154.188,17.011z M156.535,2.163v8.215h1.883c1.475,0,2.475-0.213,3.003-0.641
		c0.527-0.428,0.896-0.951,1.105-1.569c0.209-0.619,0.313-1.475,0.313-2.566c0-2.293-1.319-3.438-3.958-3.438H156.535z"/>
	<path fill="#EE7623" d="M180.963,1.316c1.22,0.892,2.084,2.065,2.594,3.521c0.509,1.456,0.764,3.029,0.764,4.722
		s-0.173,3.125-0.519,4.299s-0.878,2.243-1.597,3.207c-0.719,0.965-1.688,1.725-2.907,2.279c-1.219,0.556-2.702,0.832-4.448,0.832
		c-1.747,0-3.23-0.445-4.449-1.337c-1.22-0.892-2.084-2.065-2.594-3.521c-0.509-1.455-0.764-3.029-0.764-4.722
		s0.173-3.125,0.519-4.299s0.878-2.242,1.597-3.207s1.688-1.724,2.907-2.279c1.219-0.555,2.702-0.832,4.449-0.832
		C178.261-0.021,179.744,0.425,180.963,1.316z M180.021,4.101c-1.101-1.401-2.62-2.102-4.559-2.102
		c-1.938,0-3.343,0.501-4.217,1.501c-0.455,0.528-0.828,1.46-1.119,2.798c-0.291,1.337-0.437,2.652-0.437,3.944
		c0,2.475,0.55,4.412,1.651,5.813c1.101,1.401,2.62,2.102,4.559,2.102c1.938,0,3.344-0.5,4.217-1.501
		c0.454-0.527,0.828-1.46,1.119-2.798c0.291-1.337,0.437-2.651,0.437-3.944C181.673,7.439,181.122,5.502,180.021,4.101z"/>
	<path fill="#EE7623" d="M189.998,10.979v6.032c0,0.364,0.055,0.619,0.163,0.765c0.109,0.146,0.328,0.236,0.655,0.272l1.774,0.219
		v1.638h-7.179v-1.61l1.446-0.246c0.328-0.054,0.542-0.149,0.642-0.286s0.15-0.387,0.15-0.751V3.146c0-0.364-0.051-0.614-0.15-0.751
		s-0.313-0.231-0.642-0.286l-1.446-0.246v-1.61h7.179c2.02,0,3.566,0.373,4.64,1.119c1.074,0.746,1.61,2.011,1.61,3.794
		c0,2.02-0.818,3.494-2.456,4.422c-0.819,0.474-1.647,0.765-2.483,0.873c0.546,0.128,1.137,0.692,1.773,1.692l3.003,4.695
		c0.618,0.964,1.337,1.446,2.156,1.446c0.255,0,0.573-0.063,0.955-0.191l-0.137,1.502c-0.51,0.382-1.228,0.572-2.156,0.572
		c-1.128,0-2.192-0.764-3.193-2.292l-3.657-5.814c-0.474-0.728-1.028-1.092-1.665-1.092H189.998z M189.998,2.163v6.905h2.429
		c1.237,0,2.129-0.228,2.675-0.683c0.728-0.601,1.092-1.583,1.092-2.947c0-2.184-1.383-3.275-4.148-3.275H189.998z"/>
	<path fill="#EE7623" d="M213.936,2.163h-3.794v14.848c0,0.364,0.05,0.614,0.149,0.751c0.101,0.137,0.314,0.232,0.642,0.286
		l1.556,0.246v1.61h-7.042v-1.61l1.556-0.246c0.328-0.054,0.542-0.149,0.642-0.286s0.15-0.387,0.15-0.751V2.163h-3.821
		c-0.346,0-0.597,0.05-0.751,0.149c-0.154,0.101-0.241,0.314-0.259,0.642l-0.164,1.992h-1.747l-0.163-4.694h16.158l-0.164,4.694
		h-1.746l-0.164-1.992c-0.019-0.327-0.109-0.541-0.273-0.642C214.536,2.213,214.28,2.163,213.936,2.163z"/>
	<path fill="#EE7623" d="M217.51,16.848l5.869-16.596h2.538l5.841,16.596c0.164,0.455,0.332,0.76,0.505,0.914
		s0.441,0.269,0.806,0.341l1.064,0.191v1.61h-7.015v-1.556l1.501-0.246c0.473-0.072,0.71-0.291,0.71-0.654
		c0-0.164-0.037-0.346-0.109-0.546l-1.201-3.467h-7.233l-1.146,3.385c-0.073,0.2-0.109,0.392-0.109,0.573
		c0,0.4,0.245,0.637,0.736,0.709l1.475,0.246v1.556h-6.551v-1.61l1.037-0.191c0.363-0.072,0.628-0.187,0.791-0.341
		C217.183,17.607,217.347,17.303,217.51,16.848z M224.688,3.827l-0.3-1.228l-0.301,1.228l-2.647,7.697h5.896L224.688,3.827z"/>
	<path fill="#EE7623" d="M249.036,19.904h-13.211v-1.61l1.446-0.246c0.328-0.054,0.542-0.149,0.642-0.286s0.15-0.387,0.15-0.751
		V3.146c0-0.364-0.051-0.614-0.15-0.751s-0.313-0.231-0.642-0.286l-1.446-0.246v-1.61h6.987v1.61l-1.61,0.246
		c-0.327,0.055-0.541,0.149-0.642,0.286c-0.1,0.137-0.149,0.387-0.149,0.751v14.767h5.432c0.345,0,0.601-0.05,0.764-0.15
		c0.164-0.1,0.255-0.313,0.273-0.642l0.164-2.047h1.828L249.036,19.904z"/>
</g>
</svg>
